<svg width="880" height="400" viewBox="0 0 880 400" fill="none" xmlns="http://www.w3.org/2000/svg">
<path d="M880 200C880 310.457 683.005 400 440 400C196.995 400 0 310.457 0 200C0 89.5431 196.995 0 440 0C683.005 0 880 89.5431 880 200Z" fill="#E8E8E8"/>
<path fill-rule="evenodd" clip-rule="evenodd" d="M39.8948 184.263L39.8953 184.262L39.8955 184.261L39.9 184.248C39.9046 184.235 39.9126 184.212 39.9239 184.18C39.9465 184.116 39.9826 184.016 40.033 183.881C40.1339 183.61 40.2922 183.2 40.5155 182.658C40.9619 181.574 41.6677 179.967 42.6918 177.911C44.7399 173.799 48.0615 167.893 53.1283 160.797C63.2593 146.608 80.3798 127.643 108.28 108.741C164.072 70.942 263.115 33.2995 435.863 34.7977C608.622 36.296 709.761 73.9372 767.643 111.02C796.587 129.563 814.743 147.985 825.645 161.722C831.098 168.592 834.739 174.294 837.009 178.259C838.144 180.242 838.936 181.79 839.441 182.833C839.693 183.355 839.874 183.75 839.989 184.01C840.047 184.14 840.088 184.236 840.114 184.297L840.128 184.329L840.142 184.363L840.147 184.375C840.563 185.399 841.729 185.892 842.753 185.476C843.776 185.06 844.269 183.894 843.853 182.87L842.157 183.559C843.853 182.87 843.852 182.868 843.851 182.865L843.847 182.856L843.836 182.829C843.827 182.806 843.813 182.774 843.796 182.734C843.762 182.653 843.712 182.537 843.645 182.388C843.512 182.088 843.314 181.653 843.042 181.091C842.498 179.967 841.663 178.337 840.48 176.271C838.115 172.141 834.362 166.271 828.779 159.235C817.609 145.162 799.126 126.44 769.801 107.652C711.144 70.0723 609.222 32.301 435.897 30.7978C262.56 29.2945 162.663 67.0646 106.036 105.429C77.7272 124.608 60.2686 143.913 49.8729 158.472C44.6763 165.75 41.2476 171.839 39.1114 176.127C38.0433 178.272 37.2983 179.966 36.817 181.134C36.5764 181.718 36.4016 182.171 36.2854 182.483C36.2273 182.638 36.1837 182.759 36.1539 182.843C36.139 182.885 36.1275 182.918 36.1194 182.942L36.1096 182.97L36.1065 182.979C36.1054 182.982 36.1046 182.985 38.0001 183.623L36.1046 182.985C35.7521 184.031 36.315 185.166 37.3618 185.518C38.408 185.871 39.5416 185.309 39.8948 184.263Z" fill="#D7D7D7"/>
<path d="M721 249.132C721 305.593 631.009 351.365 520 351.365C408.991 351.365 319 305.593 319 249.132C319 192.67 408.991 146.898 520 146.898C631.009 146.898 721 192.67 721 249.132Z" fill="#AE7402"/>
<path d="M172.029 90.3487C225.029 45.6837 583.529 81.9119 647.029 90.3487C710.529 98.7854 593.029 175.212 593.029 175.212C593.029 175.212 343.529 332.532 292.529 330.547C241.529 328.562 119.029 135.014 172.029 90.3487Z" fill="#C5A15D"/>
<path fill-rule="evenodd" clip-rule="evenodd" d="M665.558 106.383L167.443 169.258C156.113 135.03 154.826 104.846 172.029 90.3487C225.029 45.6837 583.529 81.9119 647.029 90.3487C662.403 92.3912 667.167 98.4191 665.558 106.383Z" fill="#442D02"/>
<path d="M608.483 241.053C612.343 243.453 624.772 248.079 627.542 248.704C630.311 249.33 628.922 229.487 628.922 229.487C628.922 229.487 625.791 226.285 620.259 226.008C614.726 225.732 604.623 238.652 608.483 241.053Z" fill="#046119"/>
<path d="M601.945 230.779C611.952 227.99 633.484 239.551 636.886 244.807C640.288 250.062 571.325 376.661 571.325 376.661C571.325 376.661 558.888 387.227 555.443 370.285C551.997 353.344 591.937 233.568 601.945 230.779Z" fill="#0E7A26"/>
</svg>
