<svg width="300" height="175" viewBox="0 0 300 175" fill="none" xmlns="http://www.w3.org/2000/svg">
<path d="M0 162.596C0 160.989 0.299905 159.479 0.89971 158.065C1.52094 156.63 2.3778 155.366 3.4703 154.274C4.5628 153.16 5.81597 152.292 7.22979 151.671C8.66504 151.028 10.2074 150.707 11.8569 150.707C13.4849 150.707 15.0058 151.028 16.4197 151.671C17.8549 152.292 19.1188 153.16 20.2113 154.274C21.3252 155.366 22.1928 156.63 22.814 158.065C23.4352 159.479 23.7459 160.989 23.7459 162.596C23.7459 164.245 23.4352 165.788 22.814 167.223C22.1928 168.658 21.3252 169.922 20.2113 171.015C19.1188 172.086 17.8549 172.932 16.4197 173.553C15.0058 174.153 13.4849 174.453 11.8569 174.453C10.2074 174.453 8.66504 174.153 7.22979 173.553C5.81597 172.953 4.5628 172.118 3.4703 171.047C2.3778 169.976 1.52094 168.722 0.89971 167.287C0.299905 165.852 0 164.288 0 162.596ZM3.21324 162.628C3.21324 163.849 3.43817 164.995 3.88802 166.066C4.33788 167.116 4.9591 168.048 5.7517 168.862C6.5443 169.676 7.46543 170.318 8.51509 170.79C9.56475 171.24 10.7001 171.464 11.9211 171.464C13.1207 171.464 14.2454 171.24 15.295 170.79C16.3447 170.318 17.2551 169.676 18.0263 168.862C18.7975 168.048 19.408 167.116 19.8578 166.066C20.3077 164.995 20.5326 163.838 20.5326 162.596C20.5326 161.375 20.3077 160.229 19.8578 159.158C19.408 158.065 18.7868 157.112 17.9942 156.298C17.2016 155.484 16.2804 154.852 15.2308 154.402C14.1811 153.931 13.0565 153.695 11.8569 153.695C10.6358 153.695 9.50048 153.931 8.45083 154.402C7.40117 154.873 6.48004 155.516 5.68744 156.33C4.89484 157.144 4.28432 158.097 3.85589 159.19C3.42746 160.261 3.21324 161.407 3.21324 162.628Z" fill="#3664AA"/>
<path d="M41.0145 155.109C40.2219 154.702 39.3543 154.349 38.4118 154.049C37.4692 153.749 36.5481 153.599 35.6484 153.599C34.4059 153.599 33.4098 153.888 32.6601 154.466C31.9318 155.045 31.5676 155.816 31.5676 156.78C31.5676 157.508 31.8032 158.13 32.2745 158.644C32.7458 159.136 33.367 159.565 34.1382 159.929C34.9094 160.293 35.7127 160.636 36.5481 160.957C37.2764 161.236 37.9941 161.546 38.701 161.889C39.4079 162.232 40.0398 162.66 40.5968 163.174C41.1752 163.688 41.625 164.32 41.9464 165.07C42.2891 165.82 42.4605 166.752 42.4605 167.866C42.4605 169.087 42.1499 170.201 41.5286 171.207C40.9288 172.214 40.0613 173.007 38.9259 173.585C37.7906 174.164 36.441 174.453 34.8772 174.453C33.849 174.453 32.8636 174.335 31.921 174.099C30.9999 173.864 30.143 173.564 29.3504 173.2C28.5578 172.814 27.8509 172.418 27.2297 172.011L28.6114 169.569C29.1255 169.933 29.7146 170.286 30.3787 170.629C31.0428 170.95 31.739 171.218 32.4673 171.432C33.1956 171.625 33.9025 171.722 34.588 171.722C35.3164 171.722 36.034 171.593 36.7409 171.336C37.4692 171.057 38.069 170.64 38.5403 170.083C39.0116 169.526 39.2472 168.787 39.2472 167.866C39.2472 167.073 39.033 166.42 38.6046 165.906C38.1976 165.37 37.6513 164.92 36.9658 164.556C36.2803 164.17 35.552 163.828 34.7808 163.528C34.0525 163.249 33.3134 162.949 32.5637 162.628C31.8139 162.285 31.1177 161.878 30.4751 161.407C29.8324 160.914 29.3183 160.315 28.9327 159.608C28.5471 158.901 28.3543 158.044 28.3543 157.037C28.3543 155.816 28.6435 154.756 29.2219 153.856C29.8217 152.935 30.6357 152.217 31.664 151.703C32.6922 151.167 33.8704 150.878 35.1985 150.835C36.6981 150.835 38.0155 151.018 39.1508 151.382C40.3076 151.746 41.3251 152.196 42.2034 152.731L41.0145 155.109Z" fill="#3664AA"/>
<path d="M45.3855 174.196L55.5394 150H55.7322L65.8539 174.196H62.2872L54.7039 154.884L56.9211 153.438L48.4381 174.196H45.3855ZM51.33 165.391H59.9736L61.0019 168.091H50.4303L51.33 165.391Z" fill="#3664AA"/>
<path d="M73.3784 160.315L73.282 161.471L73.6997 160.893L83.2109 150.964H87.2274L77.6199 160.925L87.7737 174.196H83.8214L75.3385 162.917L73.3784 164.813V174.196H70.2294V150.964H73.3784V160.315Z" fill="#3664AA"/>
<path d="M89.7245 174.196L99.8783 150H100.071L110.193 174.196H106.626L99.0429 154.884L101.26 153.438L92.7771 174.196H89.7245ZM95.669 165.391H104.313L105.341 168.091H94.7693L95.669 165.391Z" fill="#3664AA"/>
<path d="M134.683 174.935L116.721 156.716L117.621 156.941L117.685 174.196H114.568V150.257H114.729L132.498 168.54L131.759 168.38L131.695 150.964H134.78V174.935H134.683Z" fill="#3664AA"/>
<path d="M139.147 174.196L149.301 150H149.494L159.615 174.196H156.049L148.465 154.884L150.682 153.438L142.199 174.196H139.147ZM145.091 165.391H153.735L154.763 168.091H144.192L145.091 165.391Z" fill="#3664AA"/>
<path d="M162.352 165.97H168.361V168.605H162.352V165.97Z" fill="#3664AA"/>
<path d="M185.767 155.109C184.975 154.702 184.107 154.349 183.165 154.049C182.222 153.749 181.301 153.599 180.401 153.599C179.159 153.599 178.163 153.888 177.413 154.466C176.684 155.045 176.32 155.816 176.32 156.78C176.32 157.508 176.556 158.13 177.027 158.644C177.499 159.136 178.12 159.565 178.891 159.929C179.662 160.293 180.465 160.636 181.301 160.957C182.029 161.236 182.747 161.546 183.454 161.889C184.161 162.232 184.793 162.66 185.35 163.174C185.928 163.688 186.378 164.32 186.699 165.07C187.042 165.82 187.213 166.752 187.213 167.866C187.213 169.087 186.903 170.201 186.281 171.207C185.682 172.214 184.814 173.007 183.679 173.585C182.543 174.164 181.194 174.453 179.63 174.453C178.602 174.453 177.616 174.335 176.674 174.099C175.753 173.864 174.896 173.564 174.103 173.2C173.311 172.814 172.604 172.418 171.982 172.011L173.364 169.569C173.878 169.933 174.467 170.286 175.131 170.629C175.796 170.95 176.492 171.218 177.22 171.432C177.948 171.625 178.655 171.722 179.341 171.722C180.069 171.722 180.787 171.593 181.494 171.336C182.222 171.057 182.822 170.64 183.293 170.083C183.764 169.526 184 168.787 184 167.866C184 167.073 183.786 166.42 183.357 165.906C182.95 165.37 182.404 164.92 181.719 164.556C181.033 164.17 180.305 163.828 179.534 163.528C178.805 163.249 178.066 162.949 177.316 162.628C176.567 162.285 175.87 161.878 175.228 161.407C174.585 160.914 174.071 160.315 173.685 159.608C173.3 158.901 173.107 158.044 173.107 157.037C173.107 155.816 173.396 154.756 173.975 153.856C174.574 152.935 175.388 152.217 176.417 151.703C177.445 151.167 178.623 150.878 179.951 150.835C181.451 150.835 182.768 151.018 183.904 151.382C185.06 151.746 186.078 152.196 186.956 152.731L185.767 155.109Z" fill="#3664AA"/>
<path d="M190.138 174.196L200.292 150H200.485L210.607 174.196H207.04L199.457 154.884L201.674 153.438L193.191 174.196H190.138ZM196.083 165.391H204.726L205.755 168.091H195.183L196.083 165.391Z" fill="#3664AA"/>
<path d="M235.097 174.935L217.135 156.716L218.035 156.941L218.099 174.196H214.982V150.257H215.143L232.912 168.54L232.173 168.38L232.109 150.964H235.193V174.935H235.097Z" fill="#3664AA"/>
<path d="M239.625 172.493C239.625 172.021 239.796 171.625 240.139 171.304C240.503 170.961 240.9 170.79 241.328 170.79C241.714 170.79 242.078 170.961 242.42 171.304C242.785 171.625 242.967 172.021 242.967 172.493C242.967 173.007 242.785 173.425 242.42 173.746C242.078 174.046 241.714 174.196 241.328 174.196C240.9 174.196 240.503 174.046 240.139 173.746C239.796 173.425 239.625 173.007 239.625 172.493Z" fill="#3664AA"/>
<path d="M257.329 172.975C256.729 173.446 256.011 173.821 255.176 174.099C254.341 174.378 253.505 174.517 252.67 174.517C251.213 174.517 249.938 174.228 248.846 173.649C247.753 173.071 246.897 172.268 246.275 171.24C245.676 170.19 245.376 168.958 245.376 167.544C245.376 166.13 245.697 164.899 246.34 163.849C247.004 162.799 247.861 161.996 248.91 161.439C249.981 160.861 251.127 160.572 252.348 160.572C253.419 160.572 254.373 160.722 255.208 161.021C256.065 161.321 256.793 161.728 257.393 162.242L255.915 164.17C255.53 163.87 255.058 163.603 254.501 163.367C253.944 163.131 253.312 163.014 252.605 163.014C251.834 163.014 251.117 163.217 250.453 163.624C249.81 164.01 249.296 164.545 248.91 165.231C248.546 165.916 248.364 166.687 248.364 167.544C248.364 168.358 248.557 169.119 248.942 169.826C249.328 170.511 249.863 171.057 250.549 171.464C251.234 171.85 252.016 172.043 252.895 172.043C253.473 172.043 253.998 171.957 254.469 171.786C254.962 171.614 255.401 171.379 255.787 171.079L257.329 172.975Z" fill="#3664AA"/>
<path d="M260.03 167.416C260.03 166.088 260.34 164.888 260.962 163.817C261.604 162.746 262.483 161.9 263.596 161.278C264.71 160.657 265.974 160.347 267.388 160.347C268.845 160.347 270.119 160.657 271.212 161.278C272.304 161.9 273.151 162.746 273.75 163.817C274.35 164.888 274.65 166.088 274.65 167.416C274.65 168.744 274.35 169.954 273.75 171.047C273.151 172.118 272.294 172.964 271.18 173.585C270.087 174.206 268.813 174.517 267.356 174.517C265.942 174.517 264.678 174.228 263.564 173.649C262.472 173.05 261.604 172.225 260.962 171.175C260.34 170.104 260.03 168.851 260.03 167.416ZM263.018 167.448C263.018 168.305 263.211 169.087 263.596 169.794C263.982 170.479 264.496 171.025 265.139 171.432C265.803 171.839 266.531 172.043 267.324 172.043C268.159 172.043 268.898 171.839 269.541 171.432C270.205 171.025 270.719 170.479 271.083 169.794C271.448 169.087 271.63 168.305 271.63 167.448C271.63 166.591 271.448 165.82 271.083 165.134C270.719 164.427 270.205 163.87 269.541 163.463C268.898 163.035 268.159 162.821 267.324 162.821C266.51 162.821 265.771 163.035 265.107 163.463C264.464 163.892 263.95 164.46 263.564 165.166C263.2 165.852 263.018 166.612 263.018 167.448Z" fill="#3664AA"/>
<path d="M281.363 160.893L281.62 163.881L281.492 163.624C281.984 162.617 282.681 161.825 283.58 161.246C284.501 160.668 285.551 160.379 286.729 160.379C287.479 160.379 288.143 160.497 288.722 160.732C289.3 160.968 289.771 161.311 290.135 161.76C290.521 162.189 290.767 162.724 290.874 163.367L290.714 163.463C291.228 162.5 291.935 161.75 292.834 161.214C293.756 160.657 294.72 160.379 295.726 160.379C297.033 160.379 298.061 160.754 298.811 161.503C299.582 162.232 299.979 163.185 300 164.363V174.196H297.012V165.424C296.99 164.738 296.819 164.17 296.498 163.721C296.198 163.249 295.662 162.992 294.891 162.949C294.12 162.949 293.424 163.185 292.802 163.656C292.203 164.128 291.731 164.738 291.388 165.488C291.046 166.216 290.864 167.009 290.842 167.866V174.196H287.854V165.424C287.833 164.738 287.65 164.17 287.308 163.721C286.986 163.249 286.44 162.992 285.669 162.949C284.876 162.949 284.18 163.185 283.58 163.656C282.981 164.128 282.509 164.738 282.166 165.488C281.845 166.238 281.685 167.041 281.685 167.898V174.196H278.696V160.893H281.363Z" fill="#3664AA"/>
<path fill-rule="evenodd" clip-rule="evenodd" d="M262.932 49.9994C262.932 84.9584 251.435 99.9989 251.435 99.9989C251.435 99.9989 244.264 74.1855 225.704 48.7888C243.535 24.199 251.435 0 251.435 0C251.435 0 262.932 15.0404 262.932 49.9994ZM135.932 99.9989C178.045 100.206 207.214 74.2872 225.704 48.7888C207.733 24.1991 179.085 2.86117e-05 135.932 0C48.2083 -5.81621e-05 37 49.9994 37 49.9994C37 49.9994 53.2068 99.5924 135.932 99.9989ZM77.5 42C82.1944 42 86 38.1944 86 33.5C86 28.8056 82.1944 25 77.5 25C72.8056 25 69 28.8056 69 33.5C69 38.1944 72.8056 42 77.5 42Z" fill="#3664AA"/>
</svg>
