<svg width="226" height="100" viewBox="0 0 226 100" fill="none" xmlns="http://www.w3.org/2000/svg">
<path fill-rule="evenodd" clip-rule="evenodd" d="M225.932 49.9994C225.932 84.9584 214.435 99.9989 214.435 99.9989C214.435 99.9989 207.264 74.1855 188.704 48.7888C206.535 24.199 214.435 0 214.435 0C214.435 0 225.932 15.0404 225.932 49.9994ZM98.9318 99.9989C141.045 100.206 170.214 74.2872 188.704 48.7888C170.733 24.1991 142.085 2.86117e-05 98.9318 0C11.2083 -5.81621e-05 0 49.9994 0 49.9994C0 49.9994 16.2068 99.5924 98.9318 99.9989ZM40.5 42C45.1944 42 49 38.1944 49 33.5C49 28.8056 45.1944 25 40.5 25C35.8056 25 32 28.8056 32 33.5C32 38.1944 35.8056 42 40.5 42Z" fill="white"/>
</svg>
